<svg viewBox="0 0 48 48" fill="none" xmlns="http://www.w3.org/2000/svg">
<path d="M19.0447 32.3998C18.8304 31.5692 18.3975 30.8113 17.791 30.2048C17.1845 29.5982 16.4265 29.1653 15.596 28.9511L0.872319 25.1544C0.621119 25.0831 0.400032 24.9318 0.242604 24.7234C0.0851762 24.5151 0 24.2611 0 24C0 23.7389 0.0851762 23.4849 0.242604 23.2765C0.400032 23.0682 0.621119 22.9169 0.872319 22.8456L15.596 19.0465C16.4262 18.8325 17.184 18.3999 17.7905 17.7938C18.3969 17.1878 18.83 16.4303 19.0447 15.6002L22.8414 0.876576C22.9119 0.624386 23.0631 0.402208 23.2717 0.243939C23.4804 0.0856696 23.7351 0 23.9969 0C24.2588 0 24.5135 0.0856696 24.7222 0.243939C24.9308 0.402208 25.0819 0.624386 25.1525 0.876576L28.9468 15.6002C29.1611 16.4308 29.594 17.1887 30.2005 17.7952C30.807 18.4018 31.565 18.8347 32.3955 19.0489L47.1192 22.8432C47.3724 22.9131 47.5956 23.064 47.7548 23.273C47.9139 23.482 48.0001 23.7374 48.0001 24C48.0001 24.2626 47.9139 24.518 47.7548 24.727C47.5956 24.936 47.3724 25.0869 47.1192 25.1568L32.3955 28.9511C31.565 29.1653 30.807 29.5982 30.2005 30.2048C29.594 30.8113 29.1611 31.5692 28.9468 32.3998L25.1501 47.1234C25.0795 47.3756 24.9284 47.5978 24.7198 47.7561C24.5111 47.9143 24.2564 48 23.9945 48C23.7327 48 23.478 47.9143 23.2693 47.7561C23.0607 47.5978 22.9095 47.3756 22.839 47.1234L19.0447 32.3998Z" fill="#D9D9D9"/>
<path d="M25.007 29.9233C24.5144 29.6328 23.9531 29.4796 23.3812 29.4796C22.8094 29.4796 22.248 29.6328 21.7555 29.9233L13.0249 35.0743C12.8729 35.1591 12.6974 35.192 12.5249 35.168C12.3525 35.144 12.1926 35.0645 12.0695 34.9414C11.9465 34.8183 11.8669 34.6584 11.8429 34.486C11.8189 34.3135 11.8518 34.138 11.9366 33.986L17.0865 25.2543C17.3769 24.762 17.5302 24.2009 17.5304 23.6293C17.5306 23.0577 17.3777 22.4964 17.0876 22.0039L11.9366 13.2734C11.851 13.1212 11.8175 12.9452 11.8412 12.7723C11.865 12.5993 11.9447 12.4389 12.0681 12.3154C12.1916 12.192 12.352 12.1123 12.525 12.0885C12.6979 12.0648 12.8739 12.0983 13.0261 12.1839L21.7555 17.336C22.248 17.6265 22.8094 17.7798 23.3812 17.7798C23.9531 17.7798 24.5144 17.6265 25.007 17.336L33.7364 12.1839C33.8887 12.0975 34.0651 12.0634 34.2386 12.0869C34.4121 12.1104 34.5732 12.1901 34.697 12.3139C34.8208 12.4378 34.9006 12.5988 34.924 12.7723C34.9475 12.9458 34.9134 13.1222 34.827 13.2745L29.6749 22.0039C29.3844 22.4965 29.2311 23.0578 29.2311 23.6297C29.2311 24.2015 29.3844 24.7629 29.6749 25.2554L34.8259 33.986C34.9115 34.1381 34.945 34.3141 34.9212 34.4871C34.8975 34.66 34.8178 34.8205 34.6944 34.9439C34.5709 35.0674 34.4105 35.1471 34.2375 35.1708C34.0645 35.1946 33.8886 35.1611 33.7364 35.0755L25.007 29.9233Z" fill="#D9D9D9"/>
</svg>
